<svg id="Layer_1" data-name="Layer 1" xmlns="http://www.w3.org/2000/svg" viewBox="0 0 79.54 156.8"><defs><style>.cls-1{fill:#65b145;}.cls-2{fill:#e22827;}.cls-3{fill:#f2974d;}.cls-4{fill:#537ebe;}</style></defs><title>1st right</title><path class="cls-1" d="M433.51,309.52a8.66,8.66,0,1,1-9-8.25A8.67,8.67,0,0,1,433.51,309.52Z" transform="translate(-397.14 -161.76)"/><path class="cls-2" d="M468.45,203.05a14.21,14.21,0,1,1-14.83-13.58A14.21,14.21,0,0,1,468.45,203.05Z" transform="translate(-397.14 -161.76)"/><path class="cls-3" d="M449.73,250.63a13.71,13.71,0,1,1-14.29-13.08A13.7,13.7,0,0,1,449.73,250.63Z" transform="translate(-397.14 -161.76)"/><path class="cls-2" d="M462.75,287.48A15.2,15.2,0,1,1,446.89,273,15.19,15.19,0,0,1,462.75,287.48Z" transform="translate(-397.14 -161.76)"/><path class="cls-1" d="M476.67,246.66a12.47,12.47,0,1,1-13-11.91A12.47,12.47,0,0,1,476.67,246.66Z" transform="translate(-397.14 -161.76)"/><path class="cls-4" d="M437.68,179.91a19,19,0,1,1-19.8-18.13A19,19,0,0,1,437.68,179.91Z" transform="translate(-397.14 -161.76)"/><path class="cls-4" d="M438.7,220.77a12.69,12.69,0,1,1-13.24-12.11A12.68,12.68,0,0,1,438.7,220.77Z" transform="translate(-397.14 -161.76)"/><path class="cls-2" d="M427.52,278.35a15.2,15.2,0,1,1-15.83-14.5A15.18,15.18,0,0,1,427.52,278.35Z" transform="translate(-397.14 -161.76)"/></svg>