<svg id="Layer_1" data-name="Layer 1" xmlns="http://www.w3.org/2000/svg" viewBox="0 0 79.54 156.8"><defs><style>.cls-1{fill:#65b145;}.cls-2{fill:#e22827;}.cls-3{fill:#f2974d;}.cls-4{fill:#537ebe;}</style></defs><title>1st left</title><path class="cls-1" d="M440.32,309.52a8.66,8.66,0,1,0,9-8.25A8.67,8.67,0,0,0,440.32,309.52Z" transform="translate(-397.14 -161.76)"/><path class="cls-2" d="M405.37,203.05a14.21,14.21,0,1,0,14.83-13.58A14.22,14.22,0,0,0,405.37,203.05Z" transform="translate(-397.14 -161.76)"/><path class="cls-3" d="M424.09,250.63a13.71,13.71,0,1,0,14.3-13.08A13.7,13.7,0,0,0,424.09,250.63Z" transform="translate(-397.14 -161.76)"/><path class="cls-2" d="M411.07,287.48A15.2,15.2,0,1,0,426.94,273,15.2,15.2,0,0,0,411.07,287.48Z" transform="translate(-397.14 -161.76)"/><path class="cls-1" d="M397.16,246.66a12.47,12.47,0,1,0,13-11.91A12.47,12.47,0,0,0,397.16,246.66Z" transform="translate(-397.14 -161.76)"/><path class="cls-4" d="M436.14,179.91a19,19,0,1,0,19.8-18.13A19,19,0,0,0,436.14,179.91Z" transform="translate(-397.14 -161.76)"/><path class="cls-4" d="M435.12,220.77a12.7,12.7,0,1,0,13.24-12.11A12.68,12.68,0,0,0,435.12,220.77Z" transform="translate(-397.14 -161.76)"/><path class="cls-2" d="M446.3,278.35a15.2,15.2,0,1,0,15.83-14.5A15.19,15.19,0,0,0,446.3,278.35Z" transform="translate(-397.14 -161.76)"/></svg>