<svg id="Layer_1" data-name="Layer 1" xmlns="http://www.w3.org/2000/svg" viewBox="0 0 64.55 167.34"><defs><style>.cls-1{fill:#537ebe;}.cls-2{fill:#e22827;}.cls-3{fill:#f2974d;}.cls-4{fill:#65b145;}</style></defs><title>4th left</title><path class="cls-1" d="M421.47,259.74a17.11,17.11,0,1,1-17.86-16.33A17.12,17.12,0,0,1,421.47,259.74Z" transform="translate(-387.27 -163.55)"/><path class="cls-2" d="M450.45,220.78a22.66,22.66,0,1,1-23.66-21.65A22.64,22.64,0,0,1,450.45,220.78Z" transform="translate(-387.27 -163.55)"/><path class="cls-3" d="M437.65,254.78a10.23,10.23,0,1,1-11.78,8.38A10.23,10.23,0,0,1,437.65,254.78Z" transform="translate(-387.27 -163.55)"/><path class="cls-2" d="M451.82,320.84a9.62,9.62,0,1,1-10-9.18A9.62,9.62,0,0,1,451.82,320.84Z" transform="translate(-387.27 -163.55)"/><path class="cls-4" d="M420.77,163.77a15.29,15.29,0,1,1-17.63,12.53A15.26,15.26,0,0,1,420.77,163.77Z" transform="translate(-387.27 -163.55)"/><path class="cls-4" d="M420.77,285.54a15.29,15.29,0,1,1-17.63,12.53A15.27,15.27,0,0,1,420.77,285.54Z" transform="translate(-387.27 -163.55)"/></svg>